# xmcd
#
# Track frame offsets: 
#        150
#        16168
#        33200
#        58533
#        75885
#        95858
#        113363
#        131638
#        171100
#
# Disc length: 2733 seconds
#
# Revision: 5
# Processed by: cddbd v1.5.2PL0 Copyright (c) Steve Scherf et al.
# Submitted via: ExactAudioCopy v0.99pb3
#
DISCID=5f0aab09
DTITLE=Freddie King - Freddie King (1934-1976)
DYEAR=1977
DGENRE=Blues
TTITLE0=Pack It Up
TTITLE1=Shake Your Bootie
TTITLE2=Tain't Nobody's Bizness If I Do
TTITLE3=Woman Across The River
TTITLE4=Sweet Home Chicago
TTITLE5=Sugar Sweet
TTITLE6=TV Mama
TTITLE7=Gambling Woman Blues
TTITLE8=Farther On Up The Road
EXTD=
EXTT0=
EXTT1=
EXTT2=
EXTT3=
EXTT4=
EXTT5=
EXTT6=
EXTT7=
EXTT8=
PLAYORDER=
